<svg xmlns="http://www.w3.org/2000/svg" version="1.1" xmlns:xlink="http://www.w3.org/1999/xlink" xmlns:svgjs="http://svgjs.com/svgjs" width="512" height="512" x="0" y="0" viewBox="0 0 20 20" style="enable-background:new 0 0 512 512" xml:space="preserve" class=""><g><path fill="#ff3670" fill-rule="evenodd" d="M2 5a2 2 0 0 1 2-2h12a2 2 0 0 1 2 2v10a2 2 0 0 1-2 2H4a2 2 0 0 1-2-2zm3.293 1.293a1 1 0 0 1 1.414 0l3 3a1 1 0 0 1 0 1.414l-3 3a1 1 0 0 1-1.414-1.414L7.586 10 5.293 7.707a1 1 0 0 1 0-1.414zM11 12a1 1 0 0 0 0 2h3a1 1 0 0 0 0-2z" clip-rule="evenodd" data-original="#000000" class=""></path></g><svg xmlns="http://www.w3.org/2000/svg" version="1.1" xmlns:xlink="http://www.w3.org/1999/xlink" xmlns:svgjs="http://svgjs.com/svgjs" width="512" height="512" x="0" y="0" viewBox="0 0 20 20" style="enable-background:new 0 0 512 512" xml:space="preserve" class=""><g><path fill="#ff3670" fill-rule="evenodd" d="M2 5a2 2 0 0 1 2-2h12a2 2 0 0 1 2 2v10a2 2 0 0 1-2 2H4a2 2 0 0 1-2-2zm3.293 1.293a1 1 0 0 1 1.414 0l3 3a1 1 0 0 1 0 1.414l-3 3a1 1 0 0 1-1.414-1.414L7.586 10 5.293 7.707a1 1 0 0 1 0-1.414zM11 12a1 1 0 0 0 0 2h3a1 1 0 0 0 0-2z" clip-rule="evenodd" data-original="#000000" class=""></path></g></svg></svg>
